{"scene":0,"asset":{"generator":"ImageToStl.com","version":"2.0"},"scenes":[{"name":"Scene","nodes":[0]}],"nodes":[{"name":"Node0","children":[1]},{"name":"Node1","mesh":0}],"materials":[{"name":"#CAD1EEFF","pbrMetallicRoughness":{"baseColorFactor":[0.7921569,0.81960785,0.93333334,1.0],"metallicFactor":0.05,"roughnessFactor":0.5},"doubleSided":true}],"meshes":[{"name":"Mesh0","primitives":[{"indices":1,"material":0,"attributes":{"POSITION":0}}]}],"accessors":[{"bufferView":0,"componentType":5126,"count":85851,"type":"VEC3","min":[-80.01,-101.60001,-118.364],"max":[80.01,120.65,118.11]},{"bufferView":1,"componentType":5125,"count":515262,"type":"SCALAR"}],"bufferViews":[{"target":34962,"buffer":0,"byteLength":1030212,"byteOffset":0},{"target":34963,"buffer":0,"byteLength":2061048,"byteOffset":1030212}],"buffers":[{"byteLength":3091260,"uri":"data:application/octet-stream;base64,"}]}