{"scene":0,"asset":{"generator":"ImageToStl.com","version":"2.0"},"scenes":[{"name":"Scene","nodes":[0]}],"nodes":[{"name":"Node0","children":[1]},{"name":"Node1","mesh":0}],"materials":[{"name":"#CAD1EEFF","pbrMetallicRoughness":{"baseColorFactor":[0.7921569,0.81960785,0.93333334,1.0],"metallicFactor":0.05,"roughnessFactor":0.5},"doubleSided":true}],"meshes":[{"name":"Mesh0","primitives":[{"indices":1,"material":0,"attributes":{"POSITION":0}}]}],"accessors":[{"bufferView":0,"componentType":5126,"count":40195,"type":"VEC3","min":[-65.97504,-91.44,-65.97741],"max":[65.97504,83.82,65.97741]},{"bufferView":1,"componentType":5123,"count":241242,"type":"SCALAR"}],"bufferViews":[{"target":34962,"buffer":0,"byteLength":482340,"byteOffset":0},{"target":34963,"buffer":0,"byteLength":482484,"byteOffset":482340}],"buffers":[{"byteLength":964824,"uri":"data:application/octet-stream;base64,"}]}