<?xml version="1.0" encoding="UTF-8" standalone="no"?>
<!-- Created with Inkscape (http://www.inkscape.org/) -->

<svg
   version="1.1"
   id="svg1"
   width="1133.8533"
   height="1133.8533"
   viewBox="0 0 1133.8533 1133.8533"
   sodipodi:docname="SOLIDWORKS Expert - CAD Design.eps"
   xmlns:inkscape="http://www.inkscape.org/namespaces/inkscape"
   xmlns:sodipodi="http://sodipodi.sourceforge.net/DTD/sodipodi-0.dtd"
   xmlns="http://www.w3.org/2000/svg"
   xmlns:svg="http://www.w3.org/2000/svg">
  <defs
     id="defs1" />
  <sodipodi:namedview
     id="namedview1"
     pagecolor="#ffffff"
     bordercolor="#000000"
     borderopacity="0.25"
     inkscape:showpageshadow="2"
     inkscape:pageopacity="0.0"
     inkscape:pagecheckerboard="0"
     inkscape:deskcolor="#d1d1d1">
    <inkscape:page
       x="0"
       y="0"
       inkscape:label="1"
       id="page1"
       width="1133.8533"
       height="1133.8533"
       margin="0"
       bleed="0" />
  </sodipodi:namedview>
  <g
     id="g1"
     inkscape:groupmode="layer"
     inkscape:label="1">
    <g
       id="group-R5">
      <path
         id="path2"
         d="m 8361.38,3845.69 -0.97,-1.22 c -138.64,-173.23 -179.37,-405.19 -108.06,-615.29 l 0.06,-0.17 c 98,-288.7 -17.75,-606.73 -278.39,-764.89 l -0.16,-0.09 c -189.69,-115.11 -307.59,-319 -312.73,-540.83 l -0.03,-1.13 c -7.04,-304.34 -224.31,-563.05 -522.86,-622.6 l -0.71,-0.15 C 6919.7,1255.87 6739.12,1104.23 6658.65,897.191 l -0.08,-0.211 C 6548.21,613.008 6255.48,443.73 5954.31,489.738 l -0.96,0.141 c -219.12,33.469 -440.21,-46.988 -586.56,-213.481 l -0.62,-0.718 C 5165.01,46.8594 4831.95,-11.6289 4564.88,134.98 v 0 c -194.89,106.989 -430.93,106.989 -625.82,0.008 l -0.02,-0.008 C 3671.97,-11.6289 3338.91,46.8516 3137.76,275.68 l -0.64,0.738 c -146.35,166.48 -367.44,246.941 -586.56,213.473 l -0.98,-0.141 c -301.16,-46 -593.89,123.27 -704.25,407.238 l -0.09,0.242 c -80.47,207.03 -261.04,358.68 -478.87,402.13 l -0.71,0.15 c -298.55,59.55 -515.808,318.27 -522.855,622.62 l -0.028,1.1 c -5.132,221.82 -123.031,425.72 -312.726,540.84 l -0.129,0.08 c -260.652,158.17 -376.402,476.2 -278.395,764.9 l 0.043,0.13 c 71.321,210.11 30.586,442.07 -108.05,615.31 l -0.961,1.2 c -190.0785,237.51 -190.0785,575.06 0,812.58 l 0.968,1.21 c 138.637,173.22 179.368,405.18 108.055,615.29 l -0.055,0.17 c -98.004,288.7 17.75,606.72 278.395,764.88 l 0.156,0.1 c 189.688,115.11 307.586,319.01 312.727,540.83 l 0.031,1.12 c 7.047,304.35 224.314,563.06 522.854,622.62 l 0.71,0.13 c 217.84,43.46 398.42,195.1 478.88,402.14 l 0.08,0.22 c 110.37,283.97 403.1,453.24 704.27,407.24 l 0.95,-0.15 c 219.13,-33.48 440.22,46.99 586.57,213.48 l 0.62,0.72 c 201.15,228.83 534.21,287.31 801.29,140.69 v 0 c 194.89,-106.98 430.93,-106.98 625.82,0 l 0.01,0.01 c 267.07,146.61 600.13,88.13 801.28,-140.69 l 0.65,-0.74 c 146.35,-166.5 367.43,-246.96 586.55,-213.49 l 0.98,0.15 c 301.17,46 593.9,-123.27 704.25,-407.24 l 0.1,-0.24 c 80.46,-207.04 261.04,-358.67 478.87,-402.13 l 0.71,-0.15 c 298.54,-59.55 515.81,-318.27 522.85,-622.62 l 0.03,-1.1 c 5.13,-221.83 123.03,-425.72 312.72,-540.84 l 0.14,-0.08 c 260.65,-158.17 376.4,-476.2 278.39,-764.9 l -0.04,-0.13 c -71.32,-210.11 -30.59,-442.08 108.05,-615.31 l 0.96,-1.2 c 190.08,-237.51 190.08,-575.06 0,-812.57"
         style="fill:#225089;fill-opacity:1;fill-rule:nonzero;stroke:none"
         transform="matrix(0.13333333,0,0,-0.13333333,0,1133.8533)" />
      <path
         id="path3"
         d="M 4251.97,8117.99 C 2116.82,8117.99 385.938,6387.12 385.938,4251.98 385.938,2116.83 2116.82,385.961 4251.97,385.961 6387.12,385.961 8118,2116.83 8118,4251.98 8118,6387.12 6387.12,8117.99 4251.97,8117.99"
         style="fill:#ffffff;fill-opacity:1;fill-rule:nonzero;stroke:none"
         transform="matrix(0.13333333,0,0,-0.13333333,0,1133.8533)" />
      <path
         id="path4"
         d="m 4251.97,624.598 c -2003.35,0 -3627.392,1624.032 -3627.392,3627.382 0,2003.34 1624.042,3627.37 3627.392,3627.37 2003.35,0 3627.39,-1624.03 3627.39,-3627.37 0,-2003.35 -1624.04,-3627.382 -3627.39,-3627.382"
         style="fill:#db2524;fill-opacity:1;fill-rule:nonzero;stroke:none"
         transform="matrix(0.13333333,0,0,-0.13333333,0,1133.8533)" />
      <path
         id="path5"
         d="m 25.392693,-35.588754 c -1.956292,-0.433603 -5.793722,-0.854747 -9.03422,-0.848468 -7.335151,-0.01194 -13.2782953,2.045384 -13.2732009,8.567969 -0.00825,9.191599 18.0341159,13.334024 18.0353639,20.0804622 0.0043,3.1410811 -2.752848,4.1157583 -6.590179,4.1173027 -4.110894,-0.00132 -7.7200645,-1.0320152 -10.4795855,-1.8475074 l -0.7037137,4.2159979 c 2.7023494,0.85806676 6.7426572,1.89678793 11.2265302,1.89899153 7.39298,0.0025 12.376635,-2.37559153 12.364078,-8.85658853 C 26.94122,-18.529543 9.029204,-22.367897 9.0284819,-28.25239 c -1.308e-4,-3.348365 3.0631661,-3.93129 7.3316341,-3.924813 2.47797,-0.0077 6.432702,0.477395 8.529671,0.899919 z m 0,0"
         style="fill:#ffffff;fill-opacity:1;fill-rule:nonzero;stroke:none"
         aria-label="S"
         transform="matrix(0.92392086,0.96132618,-0.96132618,0.92392086,234.83067,858.076)" />
      <path
         id="path6"
         d="M 33.968704,-17.927467 C 33.971606,-31.206672 28.562941,-36.439568 18.575838,-36.433664 8.5316205,-36.440843 3.130846,-31.212502 3.1279441,-17.933297 3.1291793,-4.7036376 8.5323276,0.59532 18.576545,0.60249968 28.563648,0.59659502 33.969939,-4.697808 33.968704,-17.927467 Z m -5.937348,0.0031 c -0.0038,10.7013999 -3.244245,14.2558359 -9.456164,14.2609936 -6.261466,0.00102 -9.5061807,-3.5627543 -9.5023322,-14.2641546 0.00247,-10.684884 3.2352982,-14.248267 9.4967632,-14.249288 6.211919,-0.0052 9.464202,3.567565 9.461733,14.252449 z m 0,0"
         style="fill:#ffffff;fill-opacity:1;fill-rule:nonzero;stroke:none"
         aria-label="O"
         transform="matrix(1.0179919,0.86108662,-0.86108662,1.0179919,263.276,887.94533)" />
      <path
         id="path7"
         d="m 5.5599966,-35.91327 -0.00178,35.91062936 21.0125944,1.5537e-4 -10e-4,-4.26166313 -15.343472,-0.0067 0.0028,-31.6489656 z m 0,0"
         style="fill:#ffffff;fill-opacity:1;fill-rule:nonzero;stroke:none"
         aria-label="L"
         transform="matrix(1.0960744,0.75920918,-0.75920918,1.0960744,300.75733,919.29867)" />
      <path
         id="path8"
         d="m 5.559552,-35.912796 0.00181,35.9101963 5.671511,9.8336e-4 -0.0018,-35.91019666 z m 0,0"
         style="fill:#ffffff;fill-opacity:1;fill-rule:nonzero;stroke:none"
         aria-label="I"
         transform="matrix(1.1434428,0.68579609,-0.68579609,1.1434428,330.71333,939.78667)" />
      <path
         id="path9"
         d="m 5.3986783,-35.911151 0.0028,35.15031558 C 9.4012772,0.1639983 13.225106,0.60063472 16.794115,0.60112406 29.319698,0.60561185 33.644398,-6.5389697 33.645434,-18.304647 33.648732,-30.568194 27.808469,-35.903692 17.557411,-35.90833 Z m 5.6721027,4.281326 6.482927,-0.002 c 6.482926,-0.002 10.255405,3.662763 10.247955,13.379244 0.0015,10.0519345 -3.341755,14.580555 -10.846623,14.5779099 -2.106798,-0.00433 -4.102873,-0.1548987 -5.883293,-0.4774363 z m 0,0"
         style="fill:#ffffff;fill-opacity:1;fill-rule:nonzero;stroke:none"
         aria-label="D"
         transform="matrix(1.1952658,0.59086157,-0.59086157,1.1952658,349.688,951.796)" />
      <path
         id="path10"
         d="M 16.038681,-0.00415574 24.615578,-22.906375 32.674109,8.1325954e-4 37.954899,9.2120099e-4 C 43.362697,-11.3948 46.707143,-22.564681 48.602457,-35.904821 l -5.354905,1.51e-4 c -1.506276,12.256684 -4.315523,21.749669 -7.822803,29.7961139 l -8.047168,-22.8368179 -5.291894,0.0036 -8.214714,22.6193139 -7.5518873,-29.5831319 -5.77364386,0.0053 L 10.413268,6.4429852e-4 Z m 0,0"
         style="fill:#ffffff;fill-opacity:1;fill-rule:nonzero;stroke:none"
         aria-label="W"
         transform="matrix(1.2634326,0.42604686,-0.42604686,1.2634326,394.836,974.61733)" />
      <path
         id="path11"
         d="M 33.956205,-17.928014 C 33.949891,-31.204027 28.567154,-36.45129 18.568747,-36.444838 8.5336375,-36.4435 3.1297194,-31.198575 3.1360335,-17.922562 3.1338021,-4.6926384 8.5366075,0.59857751 18.571717,0.59723904 28.570124,0.59078733 33.953974,-4.6980902 33.956205,-17.928014 Z m -5.923164,0.0017 c -0.0079,10.69234 -3.243764,14.2600048 -9.46567,14.2575229 -6.256472,0.00393 -9.5045578,-3.5653086 -9.4966509,-14.2576489 -0.00362,-10.690204 3.2459009,-14.248483 9.5023729,-14.25241 6.221906,0.0025 9.456333,3.562332 9.459948,14.252536 z m 0,0"
         style="fill:#ffffff;fill-opacity:1;fill-rule:nonzero;stroke:none"
         aria-label="O"
         transform="matrix(1.3109896,0.24307205,-0.24307205,1.3109896,461.708,996.20667)" />
      <path
         id="path12"
         d="m 5.5667165,-35.8971 0.00491,35.90122024 5.6524845,-0.00141925 0.0036,-13.87908699 c 1.950703,0.311827 3.781316,0.432893 5.508788,0.432435 4.054434,0.0011 5.506059,2.430437 6.748308,5.8274172 l 2.816456,7.61515758 5.87627,0.00527867 -3.180885,-8.86873075 c -1.237861,-3.3385507 -2.42972,-5.2820987 -5.080187,-6.3052397 3.995591,-1.251947 6.981676,-3.897051 6.974991,-9.61965 0.0056,-8.53219 -4.701148,-11.116666 -13.725898,-11.108788 z m 5.6555225,4.264237 5.946386,1.3e-5 c 5.629112,3.36e-4 7.990388,1.397747 7.988575,6.850694 0.0046,4.911888 -2.156539,7.118983 -8.197289,7.114304 -1.739158,0.0013 -3.615636,-0.104534 -5.735207,-0.47419 z m 0,0"
         style="fill:#ffffff;fill-opacity:1;fill-rule:nonzero;stroke:none"
         aria-label="R"
         transform="matrix(1.3295895,0.09984761,-0.09984761,1.3295895,510.444,1005.1413)" />
      <path
         id="path13"
         d="m 5.5762446,-35.908633 -0.00631,35.91036879 5.6628814,-0.00662266 0.0053,-10.37556713 4.642756,-5.10187 c 3.995522,0.471127 6.530246,3.923385 8.429262,8.2476674 L 27.4353,-0.00135496 33.754488,-8.76436e-5 29.919518,-8.5911346 C 27.481195,-14.092208 25.004877,-17.929612 19.765487,-19.539967 l 13.936697,-16.372239 -6.260621,4.83e-4 -16.21114,19.118022 0.0087,-19.121554 z m 0,0"
         style="fill:#ffffff;fill-opacity:1;fill-rule:nonzero;stroke:none"
         aria-label="K"
         transform="matrix(1.3327383,-0.03982932,0.03982932,1.3327383,557.82667,1008.5945)" />
      <path
         id="path14"
         d="m 25.387405,-35.591158 c -1.940114,-0.430266 -5.774453,-0.846928 -9.026142,-0.852936 -7.3335865,0.0048 -13.2771113,2.044343 -13.2690737,8.574111 -4.51e-5,9.189809 18.0161987,13.32719 18.0173607,20.0807397 -0.0034,3.1456041 -2.73841,4.120782 -6.570136,4.118432 -4.116731,0.00608 -7.7246112,-1.0301919 -10.4875199,-1.8447378 L 3.3475653,-1.3065 c 2.6969323,0.86468151 6.7539587,1.90308937 11.2353887,1.91128549 7.391642,0.0031 12.35509,-2.39485029 12.363939,-8.87500579 C 26.93856,-18.52563 9.0220484,-22.353722 9.02136,-28.243814 c 0.00707,-3.346162 3.079348,-3.932341 7.338582,-3.942631 2.482704,0.0075 6.426819,0.486491 8.519463,0.92574 z m 0,0"
         style="fill:#ffffff;fill-opacity:1;fill-rule:nonzero;stroke:none"
         aria-label="S"
         transform="matrix(1.3210957,-0.18023329,0.18023329,1.3210957,607.13333,1006.7747)" />
      <path
         id="path15"
         d=""
         style="fill:#ffffff;fill-opacity:1;fill-rule:nonzero;stroke:none"
         aria-label=" "
         transform="matrix(1.3053167,-0.27189348,0.27189348,1.3053167,647.86667,1000.8216)" />
      <path
         id="path16"
         d="m 5.128442,-35.904195 0.0023,27.380961 c -9.765e-4,5.9800311 3.8954049,8.52098991 10.361574,8.5256972 l 11.889217,-0.00593539 0.0016,-4.26248461 -11.670296,0.00705 C 12.741331,-4.2602368 10.807244,-5.344028 10.805,-8.474886 l -0.0031,-7.771617 14.311822,-0.0018 0.0048,-4.27376 -14.311823,0.0018 -0.0042,-11.121397 15.870018,0.0012 0.0016,-4.262485 z m 0,0"
         style="fill:#ffffff;fill-opacity:1;fill-rule:nonzero;stroke:none"
         aria-label="E"
         transform="matrix(1.2828562,-0.3633974,0.3633974,1.2828562,667.82,997.01733)" />
      <path
         id="path17"
         d="M 12.792056,-18.212272 0.37804688,-9.2459486e-6 6.3711303,-0.00205203 15.782732,-14.043843 24.955328,-0.00357453 31.590343,0.00131323 19.277567,-18.369019 l 12.152326,-17.53436 -6.045327,0.0062 -9.073624,13.331552 -8.6857882,-13.337597 -6.5457865,-0.0067 z m 0,0"
         style="fill:#ffffff;fill-opacity:1;fill-rule:nonzero;stroke:none"
         aria-label="X"
         transform="matrix(1.2359701,-0.50015576,0.50015576,1.2359701,712.564,984.068)" />
      <path
         id="path18"
         d="m 11.230565,-31.639414 5.940805,-0.0031 c 5.631258,0.0029 7.987808,1.60763 7.983398,7.118245 -0.0015,4.912966 -2.159446,7.357094 -8.205015,7.356941 -1.730252,-0.0016 -3.61274,-0.165325 -5.724401,-0.545911 z m -5.6605668,-4.266689 2.284e-4,35.9011723 5.6574494,0.00375478 -0.0048,-13.43883608 c 2.211679,0.367982 4.386198,0.582745 6.325979,0.590927 8.206011,-0.0057 13.342578,-3.132812 13.341908,-11.668994 9.66e-4,-8.588565 -4.699038,-11.378076 -13.722539,-11.38739 z m 0,0"
         style="fill:#ffffff;fill-opacity:1;fill-rule:nonzero;stroke:none"
         aria-label="P"
         transform="matrix(1.173364,-0.63324135,0.63324135,1.173364,756.268,966.18933)" />
      <path
         id="path19"
         d="m 5.1302016,-35.903983 0.00156,27.3770318 c -0.00115,5.9837387 3.8918267,8.53207011 10.3631714,8.52348902 l 11.882974,0.00172922 0.0027,-4.27083644 -11.66201,0.00625 c -2.98045,-0.007 -4.900663,-1.0794707 -4.905663,-4.2095139 l 2.08e-4,-7.7811437 14.304447,-0.0015 -0.0039,-4.261129 -14.304447,0.0015 -0.0034,-11.122445 15.858049,0.0024 0.0027,-4.270837 z m 0,0"
         style="fill:#ffffff;fill-opacity:1;fill-rule:nonzero;stroke:none"
         aria-label="E"
         transform="matrix(1.1044128,-0.74702761,0.74702761,1.1044128,796.964,944.036)" />
      <path
         id="path20"
         d="m 5.5650362,-35.907129 0.00708,35.90570065 5.6476708,0.001632401 -0.0037,-13.873139051 c 1.956744,0.312954 3.797264,0.436355 5.518308,0.428707 4.051175,0.0068 5.508272,2.425757 6.751103,5.8280787 L 26.29927,1.3709051e-4 32.179525,-0.00173775 29.000427,-8.8589538 c -1.246083,-3.3438182 -2.4381,-5.2949912 -5.088037,-6.3131172 4.001008,-1.244774 6.974191,-3.889355 6.977645,-9.612041 0.0019,-8.525526 -4.705882,-11.120413 -13.731028,-11.128979 z m 5.6594478,4.267451 5.946299,-0.0076 c 5.631161,0.0031 7.982335,1.413028 7.980055,6.861137 0.0015,4.915467 -2.144571,7.122453 -8.191367,7.122116 -1.738985,-0.0074 -3.626178,-0.09352 -5.73867,-0.476162 z m 0,0"
         style="fill:#ffffff;fill-opacity:1;fill-rule:nonzero;stroke:none"
         aria-label="R"
         transform="matrix(1.0206374,-0.85794937,0.85794937,1.0206374,833.01333,919.64533)" />
      <path
         id="path21"
         d="m 0.91229878,-35.902876 0.004313,4.260017 11.78524122,0.0019 -0.0034,31.64282131 5.66064,-0.00334605 0.0034,-31.64282126 11.76867,0.0016 -0.0043,-4.260017 z m 0,0"
         style="fill:#ffffff;fill-opacity:1;fill-rule:nonzero;stroke:none"
         aria-label="T"
         transform="matrix(0.92526408,-0.96003342,0.96003342,0.92526408,870.284,887.96267)" />
      <path
         id="path22"
         d="m 2606.7,6871.34 c 123.93,5.47 270.58,-19.22 297.9,-100.98 44.77,-134.02 -182.19,-329.44 -379.97,-425.36 -48.48,-23.52 -77.86,-29.97 -90.11,-28.36 -11.69,1.51 -13.49,12.41 -9.69,19.92 7.05,14.08 38.93,42.8 81.63,74 222.64,162.6 295.02,281.88 252.99,330.23 -26.96,30.95 -139.83,52.46 -257.01,52.46 -31.82,0 -115.42,-6.9 -124.01,20.64 -7,22.56 105.22,52.01 228.27,57.45"
         style="fill:#ffffff;fill-opacity:1;fill-rule:evenodd;stroke:none"
         transform="matrix(0.13333333,0,0,-0.13333333,0,1133.8533)" />
      <path
         id="path23"
         d="m 2329.74,6260.44 c 102.99,5.39 228.11,-10.72 298.38,-58.91 34.94,-23.93 59.51,-68 45.28,-118.5 -40.55,-143.35 -191.94,-316.78 -528.32,-450.05 -106.97,-42.37 -191.07,-58.59 -208.72,-47.22 -18.98,12.22 36.19,106.82 52.79,138.22 53.7,101.68 120.79,200.69 186.2,291.34 24.1,33.36 61.27,91.21 94.95,86.58 30.15,-4.15 -5.17,-65.64 -28.4,-104.74 -39.02,-65.6 -146.51,-247.85 -111.05,-258.73 78.39,-24.1 446.2,226.67 391.96,366.33 -25.14,64.81 -184.83,70.99 -285.41,70.99 -45.75,0 -145.66,-9.69 -151.19,21.71 -5.96,28.96 151.8,58.13 243.53,62.98"
         style="fill:#ffffff;fill-opacity:1;fill-rule:evenodd;stroke:none"
         transform="matrix(0.13333333,0,0,-0.13333333,0,1133.8533)" />
      <path
         id="path24"
         d="m 3132.66,6429.76 c 62.34,-10.18 113.13,-18.06 124.81,-41.85 13.09,-26.94 -54.8,-28.57 -89.01,-29.21 -163.97,-2.88 -262.84,-5.79 -267.79,-56.14 -6.44,-64.83 70.07,-130.08 145.63,-221.59 69.02,-83.52 147.49,-165.94 124.86,-242.82 -28.18,-95.74 -158.06,-116 -281.72,-116.01 -118.46,-0.1 -230.68,17.07 -277.81,25.54 -58.72,10.48 -50,36.69 -34.33,45.13 17.46,9.42 117.3,9.65 186.68,13.37 57.1,3.04 222.93,2.96 248.78,41.35 31.71,47 -45.92,127.45 -117.2,211.69 -88.94,105.14 -186.64,213.65 -134.94,292.91 66.91,102.54 262.64,95.51 372.04,77.63"
         style="fill:#ffffff;fill-opacity:1;fill-rule:evenodd;stroke:none"
         transform="matrix(0.13333333,0,0,-0.13333333,0,1133.8533)" />
      <path
         id="path25"
         d="m 5638.62,6132.15 c 130.59,0 180.91,40.88 201.57,135.34 l 30.96,147.13 c 2.07,9.84 -4.37,12.83 -12.55,12.83 h -63.15 l -17.35,-84.67 -9.94,-45.05 -8.28,-39.15 c -11.56,-53.32 -49.27,-77.34 -113.25,-77.34 -70.36,0 -89.19,23.43 -78.18,77.34 0,0 2.71,13.47 3.63,17.51 l 14.56,66.69 17.4,84.67 h -63.18 c -8.18,0 -15.88,-2.99 -17.96,-12.83 l -31.04,-147.13 c -21.2,-103.76 35.23,-135.34 146.76,-135.34 z M 3420.36,5972.57 c -9.44,-40.64 25.31,-60.28 95.93,-100.37 77.17,-43.81 94.82,-47.16 87.72,-70.26 -5.7,-18.6 -25.95,-19.37 -60.72,-19.37 h -137.52 c -15.62,0 -24.69,-5.88 -27.41,-18.65 l -5.52,-25.78 h 173.39 c 79.38,0 129.12,4.5 147.18,48.86 8.76,21.64 8.68,44.01 -12.74,66.11 -10.9,11.25 -27,21.13 -49.21,32.59 -99.12,51.24 -125,57.17 -118.73,81.99 3.54,13.96 14.08,14.48 51.36,14.48 h 116.24 c 15.69,0 24.77,5.88 27.48,18.64 l 5.73,26.92 h -147.12 c -83.32,0 -133.37,-0.45 -146.06,-55.16 z m 764.69,0 c -9.41,-40.64 25.34,-60.28 95.89,-100.37 77.27,-43.81 94.91,-47.16 87.74,-70.26 -5.71,-18.6 -25.95,-19.37 -60.7,-19.37 h -137.5 c -15.63,0 -24.72,-5.88 -27.44,-18.65 l -5.45,-25.78 h 173.37 c 79.37,0 129.09,4.5 147.11,48.86 8.88,21.64 8.77,44.01 -12.64,66.11 -10.98,11.25 -27.04,21.13 -49.31,32.59 -99.07,51.24 -124.93,57.17 -118.68,81.99 3.5,13.96 14.05,14.48 51.35,14.48 h 116.32 c 15.59,0 24.7,5.88 27.38,18.64 l 5.78,26.92 h -147.14 c -83.34,0 -133.35,-0.45 -146.08,-55.16 z m 1937.96,0 c -9.39,-40.64 25.35,-60.28 95.84,-100.37 77.28,-43.81 94.93,-47.16 87.74,-70.26 -5.65,-18.6 -25.9,-19.37 -60.62,-19.37 h -137.54 c -15.64,0 -24.72,-5.88 -27.44,-18.65 l -5.46,-25.78 h 173.41 c 79.31,0 129.04,4.5 147.1,48.86 8.83,21.64 8.73,44.01 -12.71,66.11 -10.91,11.25 -27.03,21.13 -49.27,32.59 -99.05,51.24 -124.98,57.17 -118.67,81.99 3.46,13.96 14.09,14.48 51.37,14.48 h 116.3 c 15.59,0 24.67,5.88 27.38,18.64 l 5.77,26.92 h -147.1 c -83.35,0 -133.37,-0.45 -146.1,-55.16 z m -1144.31,214.9 c 8.78,21.66 8.71,44.05 -12.74,66.11 -10.92,11.27 -26.99,21.12 -49.27,32.67 -99.08,51.24 -124.94,57.1 -118.71,81.94 3.52,13.91 14.11,14.49 51.42,14.49 h 116.23 c 15.67,0 24.75,5.85 27.48,18.59 l 5.7,27.05 h -147.12 c -83.34,0 -133.36,-0.49 -146.12,-55.25 -9.37,-40.6 25.38,-60.29 95.93,-100.39 77.22,-43.81 94.84,-47.13 87.78,-70.29 -5.76,-18.61 -25.97,-19.34 -60.69,-19.34 h -137.51 c -15.66,0 -24.77,-5.88 -27.48,-18.64 l -5.44,-25.83 h 173.37 c 79.33,0 129.12,4.49 147.17,48.89 z m -369.43,0 c 8.77,21.66 8.69,44.05 -12.69,66.11 -10.97,11.27 -27.05,21.12 -49.29,32.67 -99.15,51.24 -124.96,57.1 -118.68,81.94 3.48,13.91 14,14.49 51.39,14.49 h 116.19 c 15.68,0 24.76,5.85 27.44,18.59 l 5.8,27.05 h -147.17 c -83.33,0 -133.34,-0.49 -146.05,-55.25 -9.44,-40.6 25.35,-60.29 95.88,-100.39 77.2,-43.81 94.86,-47.13 87.76,-70.29 -5.66,-18.61 -25.94,-19.34 -60.74,-19.34 h -137.42 c -15.69,0 -24.74,-5.88 -27.52,-18.64 l -5.46,-25.83 h 173.43 c 79.35,0 129.06,4.49 147.13,48.89 z m 1612.74,239.98 c -15.66,0 -24.49,-4.89 -26.83,-15.69 l -6.2,-29.16 h 124.33 l -51.83,-244.02 h 55.75 c 15.68,0 24.81,5.88 27.91,20.55 l 47.54,223.47 h 103.76 c 14.71,0 19.86,5.93 22.41,17.7 l 5.71,27.15 z m -2708.96,-80.32 c -7.82,0 -13.72,-4.87 -14.75,-9.79 L 3456,6138.58 h 187.06 c 104.75,0 177.35,35.6 200.02,146.29 16.9,82.38 -22.14,142.58 -128.86,142.58 h -226.21 c 0,0 -0.49,-2.05 -0.93,-3.75 -5.1,-19.43 -2.42,-40.88 33.34,-40.88 h 164.43 c 79.1,0 90.41,-36.18 74.6,-99.92 -15.52,-62.57 -42.59,-94.79 -101.97,-99.72 h -112.64 l 34.79,163.95 z m 2664.66,-181.51 c 2.68,12.65 -2.17,17.56 -14.85,17.56 h -169.41 l 49.87,234.48 c 0.99,4.9 -2.88,9.79 -9.68,9.79 h -67.58 l -61.37,-288.87 h 267.24 z M 5673.3,6026.93 h -71.53 l -138.48,-112.57 -90.6,112.57 h -71.48 c -11.73,0 -18.18,-6.81 -20.62,-18.59 l -57.44,-270.2 h 60.71 c 12.74,0 19.85,5.85 22.13,16.63 l 43.02,202.23 69.78,-91.06 c 2.06,-3.88 7.89,-8.8 16.66,-8.8 h 31.4 c 8.82,0 16.67,4.92 20.44,8.8 l 108.44,91.06 -43.02,-202.23 c -2.27,-10.78 2.34,-16.63 15.13,-16.63 h 60.65 l 57.52,270.2 c 2.43,11.78 -0.95,18.59 -12.71,18.59 z m -756.54,-18.59 -57.39,-270.2 h 291.73 l 6.14,28.88 c 2.55,11.79 -0.59,15.7 -15.29,15.7 h -193.8 l 16.45,77.51 h 171.33 c 4.91,0 8.44,2.91 9.3,6.87 l 6.54,30.74 c 0.8,3.88 -1.51,6.87 -6.37,6.87 h -171.38 l 16.48,77.38 h 187.02 c 8.81,0 17.57,0 19.95,10.78 l 7.15,34.06 h -263.34 c -13.7,0 -21.82,-5.8 -24.52,-18.59 z m 866.28,0 -57.42,-270.2 h 291.83 l 6.06,28.88 c 2.53,11.79 -0.57,15.7 -15.22,15.7 h -193.86 l 16.48,77.51 h 171.31 c 4.91,0 8.48,2.91 9.26,6.87 l 6.58,30.74 c 0.83,3.88 -1.57,6.87 -6.37,6.87 h -171.35 l 16.42,77.38 h 187.03 c 8.85,0 17.61,0 19.88,10.78 l 7.24,34.06 h -263.33 c -13.74,0 -21.77,-5.8 -24.54,-18.59 z m -1749.81,8.85 -28.01,-131.49 c -48.92,-13.76 -175.69,-38.9 -155.9,54.09 l 18.54,87.14 h -66.63 c -7.85,0 -13.78,-4.82 -14.83,-9.74 l -16.81,-79.33 c -32.06,-150.8 124.07,-130.2 225.11,-101.85 l -20.81,-97.87 h 55.76 c 15.7,0 24.76,5.85 27.94,20.51 l 56.93,268.28 H 4047 c -6.83,0 -12.78,-4.82 -13.77,-9.74 z m 833.46,-17.35 5.81,27.07 h -302.51 c -15.68,0 -24.55,-4.85 -26.85,-15.62 l -6.23,-29.12 h 124.32 l -51.8,-244.03 h 55.77 c 15.65,0 24.69,5.85 27.92,20.51 l 47.46,223.52 h 103.78 c 14.69,0 19.85,5.88 22.33,17.67 z m -870.05,306.19 c 11.85,56.27 47.72,76.65 111.73,76.65 67.63,0 85.37,-23.22 74.36,-76.65 0,0 -2.77,-13.35 -3.72,-17.38 -1.32,-5.97 -4.32,-21.5 -21.86,-21.5 H 3988.4 Z m -95.28,-167.45 h 59.69 l 17.39,83.99 h 186.02 l -17.35,-83.99 h 59.72 c 7.85,0 15.32,2.96 17.37,12.75 l 31.06,145.86 c 22.78,110.65 -45.52,134.15 -137.59,134.15 -110.3,0 -173.27,-25.32 -197.3,-134.15 l -31.01,-145.86 c -2.07,-9.79 4.13,-12.75 12,-12.75 z m 1255.55,167.45 c 11.9,56.27 47.71,76.65 111.72,76.65 67.66,0 85.36,-23.22 74.39,-76.65 0,0 -2.75,-13.35 -3.74,-17.38 -1.34,-5.97 -4.33,-21.5 -21.83,-21.5 h -168.8 z m -95.27,-167.45 h 59.71 l 17.42,83.99 h 185.98 l -17.38,-83.99 h 59.75 c 7.83,0 15.32,2.96 17.39,12.75 l 30.99,145.86 c 22.87,110.65 -45.46,134.15 -137.53,134.15 -110.34,0 -173.3,-25.32 -197.35,-134.15 l -31,-145.86 c -2.03,-9.79 4.12,-12.75 12.02,-12.75"
         style="fill:#ffffff;fill-opacity:1;fill-rule:nonzero;stroke:none"
         transform="matrix(0.13333333,0,0,-0.13333333,0,1133.8533)" />
      <path
         id="path26"
         d="m 30.444336,-37.815539 c -2.414063,-0.515625 -6.152344,-1.101563 -9.609375,-1.101563 -11.5664063,0 -18.0117188,4.957032 -18.0117188,19.6875 0,15.0820317 6.5625,19.92187544 17.8945308,19.92187544 3.457032,0 7.195313,-0.57421875 9.902344,-1.3828125 L 30.045898,-6.3858516 c -2.648437,0.5742188 -6.105468,1.2070313 -8.976562,1.2070313 -6.796875,0 -9.902344,-2.765625 -9.902344,-14.1093747 0,-10.300782 3.105469,-13.863282 9.328125,-13.863282 2.988281,0 6.621094,0.515625 9.152344,1.148438 z m 13.133789,24.351562 H 58.085937 V 8.671875e-4 h 7.992188 V -24.86632 c 0,-8.460938 -4.3125,-14.050782 -15.246094,-14.050782 -10.886719,0 -15.082031,5.589844 -15.082031,14.050782 V 8.671875e-4 h 7.828125 z m 0,-5.648437 v -6.152344 c 0,-4.839844 1.898437,-7.886719 7.253906,-7.886719 5.34375,0 7.253906,3.046875 7.253906,7.886719 v 6.152344 z M 73.964844,-38.27257 v 37.52343719 c 4.605468,0.984375 8.753906,1.44140625 12.492187,1.44140625 14.789059,0 18.937499,-8.28515624 18.937499,-20.32031244 0,-12.949219 -6.386718,-18.644531 -17.496093,-18.644531 z m 7.945312,5.695312 h 5.988281 c 5.929688,0 9.269532,3.457031 9.269532,13.066406 0,9.7265629 -2.707032,14.4492192 -10.476563,14.4492192 -1.617187,0 -3.222656,-0.1171875 -4.78125,-0.3515625 z M -40.263672,21.72743 v 37.523437 c 4.605469,0.984375 8.753906,1.441406 12.492188,1.441406 14.789062,0 18.9374996,-8.285156 18.9374996,-20.320312 0,-12.949219 -6.3867186,-18.644531 -17.4960936,-18.644531 z m 7.945313,5.695312 h 5.988281 c 5.929687,0 9.269531,3.457031 9.269531,13.066406 0,9.726563 -2.707031,14.449219 -10.476562,14.449219 -1.617188,0 -3.222657,-0.117187 -4.78125,-0.351562 z M -2.6728516,21.72743 v 28.253906 c 0,7.429687 4.6523438,10.019531 12.65625,10.019531 H 22.018555 v -5.636719 h -11.625 c -3.0000003,0 -5.1328128,-0.925781 -5.1328128,-4.207031 V 43.360242 H 20.00293 V 37.66493 H 5.2607422 V 27.422742 H 21.327148 V 21.72743 Z m 54.9140626,0.339843 c -2.308594,-0.457031 -6.398438,-0.984375 -9.796875,-0.984375 -8.859375,0 -15.304688,2.132813 -15.304688,9.960938 0,10.359375 17.90625,13.816406 17.90625,20.144531 0,3 -2.648437,3.75 -6.164062,3.75 -4.3125,0 -7.945313,-0.925781 -10.875,-1.792969 l -0.808594,5.707032 c 2.929688,0.855468 7.019531,1.839843 11.917969,1.839843 8.742187,0 14.097656,-2.882812 14.097656,-10.019531 0,-11.507812 -17.847656,-14.507812 -17.847656,-20.085937 0,-3.046875 2.707031,-3.738282 7.03125,-3.738282 2.695312,0 6.785156,0.515625 9.257812,0.972657 z m 7.652344,-0.339843 v 38.273437 h 7.945312 V 21.72743 Z m 46.798825,0.574218 c -2.64843,-0.574218 -8.238278,-1.21875 -12.609372,-1.21875 -12.035156,0 -19.511719,5.074219 -19.511719,19.628907 0,15.667968 7.019531,19.980468 18.527344,19.980468 5.179687,0 10.886717,-1.089843 14.390627,-2.074218 V 38.297742 H 92.067383 v 5.871094 h 7.476562 v 10.195312 c -1.722656,0.28125 -4.59375,0.574219 -6.785156,0.574219 -6.222656,0 -9.84375,-2.882812 -9.84375,-14.226562 0,-10.066407 3.515625,-13.863282 11.402344,-13.863282 4.546875,0 8.976567,0.691407 11.789067,1.265625 z m 8.74512,-0.574218 v 38.273437 h 7.71094 V 32.88368 l 17.33203,18.996093 v 8.121094 H 148.25 V 21.72743 h -7.76953 V 42.387586 L 121.94141,21.72743 Z m 0,0"
         style="fill:#ffffff;fill-opacity:1;fill-rule:nonzero;stroke:none"
         aria-label="CAD&#10;DESIGN"
         transform="matrix(1.3333333,0,0,1.3333333,494.83333,556.784)" />
    </g>
  </g>
</svg>
