<?xml version="1.0" encoding="UTF-8" standalone="no"?>
<!-- Created with Inkscape (http://www.inkscape.org/) -->

<svg
   version="1.1"
   id="svg2"
   width="1133.8533"
   height="1133.8533"
   viewBox="0 0 1133.8533 1133.8533"
   sodipodi:docname="PROFESSIONAL - DRAWING TOOLS.eps"
   xmlns:inkscape="http://www.inkscape.org/namespaces/inkscape"
   xmlns:sodipodi="http://sodipodi.sourceforge.net/DTD/sodipodi-0.dtd"
   xmlns="http://www.w3.org/2000/svg"
   xmlns:svg="http://www.w3.org/2000/svg">
  <defs
     id="defs6" />
  <sodipodi:namedview
     id="namedview4"
     pagecolor="#ffffff"
     bordercolor="#000000"
     borderopacity="0.25"
     inkscape:showpageshadow="2"
     inkscape:pageopacity="0.0"
     inkscape:pagecheckerboard="0"
     inkscape:deskcolor="#d1d1d1" />
  <g
     id="g8"
     inkscape:groupmode="layer"
     inkscape:label="ink_ext_XXXXXX"
     transform="matrix(1.3333333,0,0,-1.3333333,0,1133.8533)">
    <g
       id="g10"
       transform="scale(0.1)">
      <path
         d="m 8361.38,3845.68 -0.97,-1.21 c -138.64,-173.23 -179.37,-405.19 -108.05,-615.29 l 0.05,-0.17 c 98,-288.7 -17.75,-606.73 -278.39,-764.89 l -0.16,-0.1 c -189.69,-115.11 -307.59,-319 -312.72,-540.82 l -0.03,-1.13 c -7.05,-304.34 -224.32,-563.06 -522.87,-622.61 l -0.7,-0.14 C 6919.7,1255.87 6739.12,1104.23 6658.65,897.191 l -0.08,-0.222 C 6548.21,613 6255.48,443.73 5954.31,489.738 l -0.95,0.141 c -219.13,33.469 -440.22,-47 -586.57,-213.488 l -0.62,-0.711 C 5165.02,46.8516 4831.95,-11.6406 4564.88,134.98 v 0 c -194.89,106.989 -430.93,106.989 -625.82,0 l -0.02,-0.011 C 3671.98,-11.6406 3338.91,46.8398 3137.77,275.68 l -0.65,0.73 c -146.35,166.488 -367.43,246.949 -586.56,213.481 l -0.98,-0.141 c -301.16,-46.012 -593.89,123.27 -704.25,407.238 l -0.09,0.242 c -80.47,207.03 -261.04,358.68 -478.87,402.13 l -0.71,0.14 c -298.55,59.56 -515.808,318.28 -522.855,622.62 l -0.028,1.1 c -5.132,221.83 -123.027,425.73 -312.722,540.84 l -0.133,0.08 C 269.27,2622.31 153.52,2940.35 251.527,3229.05 l 0.043,0.13 c 71.321,210.11 30.586,442.07 -108.05,615.31 l -0.961,1.19 c -190.0785,237.51 -190.0785,575.07 0,812.59 l 0.968,1.21 c 138.641,173.22 179.371,405.18 108.055,615.28 l -0.055,0.17 c -98.004,288.7 17.75,606.73 278.395,764.89 l 0.156,0.1 c 189.692,115.11 307.59,319 312.727,540.83 l 0.031,1.12 c 7.047,304.34 224.314,563.06 522.864,622.62 l 0.7,0.13 c 217.84,43.46 398.42,195.1 478.89,402.14 l 0.07,0.22 c 110.37,283.97 403.1,453.23 704.27,407.23 l 0.95,-0.14 c 219.13,-33.48 440.22,46.99 586.57,213.48 l 0.62,0.72 c 201.15,228.82 534.21,287.3 801.29,140.69 v 0 c 194.89,-106.98 430.93,-106.98 625.82,0 l 0.02,0.01 c 267.07,146.6 600.12,88.12 801.27,-140.7 l 0.65,-0.74 c 146.35,-166.49 367.43,-246.95 586.55,-213.48 l 0.98,0.15 c 301.17,46 593.9,-123.27 704.26,-407.24 l 0.09,-0.24 c 80.46,-207.04 261.04,-358.68 478.87,-402.14 l 0.7,-0.14 c 298.55,-59.55 515.82,-318.27 522.87,-622.62 l 0.02,-1.1 c 5.13,-221.83 123.03,-425.73 312.72,-540.84 l 0.14,-0.08 c 260.65,-158.18 376.4,-476.2 278.39,-764.9 l -0.04,-0.14 c -71.32,-210.1 -30.59,-442.07 108.05,-615.3 l 0.96,-1.2 c 190.08,-237.51 190.08,-575.07 0,-812.58"
         style="fill:#225089;fill-opacity:1;fill-rule:nonzero;stroke:none"
         id="path12" />
      <path
         d="M 4251.97,8117.99 C 2116.82,8117.99 385.938,6387.11 385.938,4251.97 385.938,2116.83 2116.82,385.961 4251.97,385.961 6387.12,385.961 8118,2116.83 8118,4251.97 8118,6387.11 6387.12,8117.99 4251.97,8117.99"
         style="fill:#ffffff;fill-opacity:1;fill-rule:nonzero;stroke:none"
         id="path14" />
      <path
         d="m 2606.7,6871.33 c 123.93,5.48 270.58,-19.21 297.9,-100.97 44.77,-134.02 -182.19,-329.44 -379.97,-425.36 -48.48,-23.52 -77.86,-29.97 -90.11,-28.37 -11.69,1.52 -13.49,12.42 -9.69,19.93 7.05,14.08 38.93,42.8 81.63,74 222.64,162.6 295.02,281.87 253,330.23 -26.97,30.95 -139.83,52.46 -257.02,52.46 -31.82,0 -115.43,-6.9 -124.01,20.64 -7,22.56 105.22,52 228.27,57.44"
         style="fill:#225089;fill-opacity:1;fill-rule:evenodd;stroke:none"
         id="path16" />
      <path
         d="m 2329.74,6260.44 c 102.99,5.39 228.11,-10.72 298.38,-58.91 34.94,-23.93 59.51,-68 45.28,-118.5 -40.55,-143.35 -191.94,-316.78 -528.32,-450.05 -106.97,-42.38 -191.07,-58.59 -208.72,-47.22 -18.98,12.22 36.19,106.82 52.79,138.22 53.7,101.68 120.79,200.69 186.2,291.33 24.1,33.37 61.27,91.21 94.95,86.58 30.15,-4.14 -5.17,-65.63 -28.4,-104.73 -39.02,-65.6 -146.51,-247.85 -111.05,-258.73 78.4,-24.1 446.2,226.66 391.96,366.32 -25.14,64.82 -184.83,71 -285.41,71 -45.75,0 -145.65,-9.69 -151.19,21.71 -5.96,28.96 151.8,58.12 243.53,62.98"
         style="fill:#225089;fill-opacity:1;fill-rule:evenodd;stroke:none"
         id="path18" />
      <path
         d="m 3132.66,6429.75 c 62.34,-10.17 113.13,-18.05 124.81,-41.84 13.09,-26.94 -54.8,-28.58 -89.01,-29.21 -163.97,-2.88 -262.84,-5.79 -267.79,-56.14 -6.43,-64.83 70.07,-130.08 145.63,-221.59 69.02,-83.53 147.49,-165.94 124.86,-242.82 -28.18,-95.75 -158.06,-116 -281.72,-116.02 -118.46,-0.09 -230.68,17.08 -277.81,25.54 -58.72,10.49 -50,36.7 -34.33,45.14 17.46,9.42 117.3,9.65 186.68,13.37 57.1,3.04 222.93,2.96 248.78,41.35 31.71,46.99 -45.92,127.45 -117.2,211.69 -88.94,105.13 -186.64,213.64 -134.94,292.9 66.91,102.55 262.64,95.52 372.04,77.63"
         style="fill:#225089;fill-opacity:1;fill-rule:evenodd;stroke:none"
         id="path20" />
      <path
         d="m 5638.62,6132.15 c 130.59,0 180.91,40.88 201.58,135.33 l 30.95,147.14 c 2.07,9.84 -4.37,12.83 -12.55,12.83 h -63.15 l -17.35,-84.67 -9.93,-45.05 -8.28,-39.15 c -11.57,-53.32 -49.28,-77.35 -113.26,-77.35 -70.36,0 -89.2,23.44 -78.18,77.35 0,0 2.71,13.46 3.64,17.51 l 14.56,66.69 17.39,84.67 h -63.18 c -8.18,0 -15.88,-2.99 -17.96,-12.83 l -31.04,-147.14 c -21.2,-103.75 35.23,-135.33 146.76,-135.33 z M 3420.36,5972.57 c -9.44,-40.64 25.31,-60.28 95.93,-100.38 77.16,-43.8 94.82,-47.15 87.72,-70.25 -5.7,-18.6 -25.95,-19.37 -60.72,-19.37 h -137.52 c -15.62,0 -24.69,-5.88 -27.41,-18.65 l -5.52,-25.78 h 173.39 c 79.38,0 129.12,4.49 147.18,48.86 8.77,21.64 8.68,44 -12.74,66.11 -10.9,11.25 -27.01,21.13 -49.21,32.58 -99.12,51.25 -125,57.18 -118.73,82 3.54,13.96 14.08,14.47 51.36,14.47 h 116.24 c 15.69,0 24.77,5.89 27.48,18.64 l 5.73,26.92 h -147.12 c -83.32,0 -133.37,-0.44 -146.06,-55.15 z m 764.69,0 c -9.4,-40.64 25.34,-60.28 95.89,-100.38 77.28,-43.8 94.91,-47.15 87.74,-70.25 -5.71,-18.6 -25.95,-19.37 -60.7,-19.37 h -137.49 c -15.64,0 -24.73,-5.88 -27.45,-18.65 l -5.45,-25.78 h 173.37 c 79.37,0 129.09,4.49 147.11,48.86 8.88,21.64 8.77,44 -12.64,66.11 -10.98,11.25 -27.03,21.13 -49.3,32.58 -99.08,51.25 -124.94,57.18 -118.69,82 3.5,13.96 14.05,14.47 51.35,14.47 h 116.32 c 15.6,0 24.7,5.89 27.38,18.64 l 5.78,26.92 h -147.14 c -83.34,0 -133.35,-0.44 -146.08,-55.15 z m 1937.96,0 c -9.39,-40.64 25.36,-60.28 95.84,-100.38 77.28,-43.8 94.93,-47.15 87.74,-70.25 -5.65,-18.6 -25.89,-19.37 -60.62,-19.37 h -137.54 c -15.64,0 -24.72,-5.88 -27.44,-18.65 l -5.46,-25.78 h 173.41 c 79.31,0 129.04,4.49 147.1,48.86 8.83,21.64 8.73,44 -12.71,66.11 -10.91,11.25 -27.03,21.13 -49.27,32.58 -99.05,51.25 -124.98,57.18 -118.66,82 3.45,13.96 14.08,14.47 51.37,14.47 h 116.29 c 15.59,0 24.67,5.89 27.39,18.64 l 5.76,26.92 h -147.1 c -83.35,0 -133.37,-0.44 -146.1,-55.15 z M 4978.7,6187.46 c 8.78,21.66 8.71,44.06 -12.74,66.12 -10.91,11.27 -26.99,21.12 -49.27,32.67 -99.08,51.24 -124.94,57.1 -118.71,81.93 3.52,13.92 14.11,14.49 51.43,14.49 h 116.22 c 15.67,0 24.75,5.86 27.48,18.6 l 5.7,27.05 h -147.12 c -83.33,0 -133.35,-0.49 -146.12,-55.26 -9.37,-40.59 25.38,-60.28 95.93,-100.39 77.22,-43.8 94.84,-47.13 87.78,-70.28 -5.76,-18.61 -25.97,-19.34 -60.69,-19.34 h -137.51 c -15.66,0 -24.76,-5.88 -27.48,-18.64 l -5.44,-25.83 h 173.38 c 79.32,0 129.11,4.49 147.16,48.88 z m -369.43,0 c 8.76,21.66 8.69,44.06 -12.69,66.12 -10.97,11.27 -27.05,21.12 -49.29,32.67 -99.15,51.24 -124.96,57.1 -118.68,81.93 3.48,13.92 14,14.49 51.39,14.49 h 116.19 c 15.68,0 24.76,5.86 27.44,18.6 l 5.81,27.05 h -147.18 c -83.33,0 -133.34,-0.49 -146.05,-55.26 -9.44,-40.59 25.35,-60.28 95.88,-100.39 77.2,-43.8 94.86,-47.13 87.77,-70.28 -5.67,-18.61 -25.95,-19.34 -60.75,-19.34 h -137.42 c -15.69,0 -24.74,-5.88 -27.52,-18.64 l -5.45,-25.83 h 173.42 c 79.35,0 129.06,4.49 147.13,48.88 z m 1612.74,239.99 c -15.66,0 -24.48,-4.89 -26.83,-15.7 l -6.2,-29.15 h 124.33 l -51.83,-244.02 h 55.75 c 15.68,0 24.81,5.88 27.91,20.55 l 47.54,223.47 h 103.76 c 14.71,0 19.86,5.93 22.41,17.7 l 5.71,27.15 z m -2708.96,-80.32 c -7.82,0 -13.72,-4.88 -14.75,-9.79 L 3456,6138.58 h 187.06 c 104.75,0 177.36,35.6 200.02,146.28 16.9,82.39 -22.14,142.59 -128.86,142.59 h -226.2 c 0,0 -0.49,-2.05 -0.94,-3.75 -5.1,-19.43 -2.41,-40.88 33.34,-40.88 h 164.43 c 79.1,0 90.41,-36.19 74.6,-99.93 -15.52,-62.56 -42.59,-94.78 -101.97,-99.71 h -112.64 l 34.79,163.95 z m 2664.66,-181.52 c 2.68,12.66 -2.18,17.57 -14.85,17.57 h -169.41 l 49.87,234.48 c 0.99,4.9 -2.87,9.79 -9.68,9.79 h -67.58 l -61.37,-288.87 h 267.24 z M 5673.3,6026.93 h -71.53 l -138.48,-112.58 -90.6,112.58 h -71.48 c -11.73,0 -18.18,-6.82 -20.62,-18.59 l -57.44,-270.2 h 60.71 c 12.74,0 19.85,5.85 22.13,16.62 l 43.02,202.24 69.78,-91.06 c 2.06,-3.89 7.89,-8.8 16.66,-8.8 h 31.4 c 8.82,0 16.67,4.91 20.44,8.8 l 108.44,91.06 -43.02,-202.24 c -2.27,-10.77 2.34,-16.62 15.13,-16.62 h 60.66 l 57.51,270.2 c 2.43,11.77 -0.95,18.59 -12.71,18.59 z m -756.54,-18.59 -57.39,-270.2 h 291.73 l 6.14,28.88 c 2.56,11.79 -0.59,15.7 -15.29,15.7 h -193.8 l 16.46,77.5 h 171.32 c 4.91,0 8.44,2.92 9.31,6.88 l 6.53,30.74 c 0.81,3.88 -1.51,6.87 -6.37,6.87 h -171.37 l 16.48,77.38 h 187.01 c 8.81,0 17.58,0 19.95,10.78 l 7.16,34.06 h -263.35 c -13.7,0 -21.82,-5.8 -24.52,-18.59 z m 866.28,0 -57.42,-270.2 h 291.83 l 6.06,28.88 c 2.53,11.79 -0.57,15.7 -15.22,15.7 h -193.86 l 16.48,77.5 h 171.31 c 4.91,0 8.48,2.92 9.26,6.88 l 6.58,30.74 c 0.83,3.88 -1.57,6.87 -6.36,6.87 h -171.37 l 16.43,77.38 h 187.03 c 8.85,0 17.6,0 19.88,10.78 l 7.24,34.06 h -263.33 c -13.74,0 -21.77,-5.8 -24.54,-18.59 z m -1749.81,8.85 -28.01,-131.5 c -48.92,-13.75 -175.69,-38.89 -155.9,54.1 l 18.54,87.14 h -66.63 c -7.85,0 -13.78,-4.82 -14.83,-9.74 l -16.81,-79.33 c -32.05,-150.8 124.06,-130.2 225.11,-101.85 l -20.81,-97.87 h 55.76 c 15.7,0 24.76,5.85 27.94,20.51 l 56.93,268.28 H 4047 c -6.83,0 -12.77,-4.82 -13.77,-9.74 z m 833.46,-17.36 5.81,27.08 h -302.51 c -15.68,0 -24.55,-4.86 -26.85,-15.63 l -6.23,-29.12 h 124.32 l -51.8,-244.02 h 55.77 c 15.65,0 24.69,5.85 27.93,20.51 l 47.45,223.51 h 103.78 c 14.69,0 19.85,5.89 22.33,17.67 z m -870.05,306.2 c 11.85,56.27 47.72,76.64 111.73,76.64 67.63,0 85.37,-23.21 74.36,-76.64 0,0 -2.78,-13.36 -3.72,-17.38 -1.32,-5.97 -4.32,-21.5 -21.86,-21.5 H 3988.4 Z m -95.28,-167.45 h 59.69 l 17.39,83.99 h 186.02 l -17.35,-83.99 h 59.72 c 7.85,0 15.32,2.96 17.37,12.75 l 31.06,145.85 c 22.77,110.66 -45.52,134.16 -137.59,134.16 -110.3,0 -173.26,-25.33 -197.31,-134.16 l -31,-145.85 c -2.06,-9.79 4.13,-12.75 12,-12.75 z m 1255.56,167.45 c 11.89,56.27 47.71,76.64 111.72,76.64 67.66,0 85.35,-23.21 74.38,-76.64 0,0 -2.75,-13.36 -3.74,-17.38 -1.33,-5.97 -4.33,-21.5 -21.83,-21.5 h -168.8 z m -95.28,-167.45 h 59.71 l 17.42,83.99 h 185.98 l -17.38,-83.99 h 59.75 c 7.83,0 15.32,2.96 17.39,12.75 l 30.99,145.85 c 22.87,110.66 -45.46,134.16 -137.53,134.16 -110.34,0 -173.29,-25.33 -197.35,-134.16 l -30.99,-145.85 c -2.04,-9.79 4.11,-12.75 12.01,-12.75"
         style="fill:#225089;fill-opacity:1;fill-rule:nonzero;stroke:none"
         id="path22" />
      <path
         d="m 624.582,4251.97 c 0,-2003.34 1624.038,-3627.372 3627.388,-3627.372 2003.35,0 3627.39,1624.032 3627.39,3627.372 0,360.39 -52.81,708.39 -150.68,1036.97 H 775.258 C 677.395,4960.36 624.582,4612.36 624.582,4251.97"
         style="fill:#db2524;fill-opacity:1;fill-rule:nonzero;stroke:none"
         id="path24" />
      <g
         id="g26"
         transform="scale(10)">
        <text
           xml:space="preserve"
           transform="matrix(0.466063,-0.884752,-0.884752,-0.466063,125.209,284.558)"
           style="font-variant:normal;font-weight:normal;font-size:54px;font-family:'3unknown';-inkscape-font-specification:'3unknown';writing-mode:lr-tb;fill:#ffffff;fill-opacity:1;fill-rule:nonzero;stroke:none"
           id="text30"><tspan
             x="0"
             y="0"
             id="tspan28">S</tspan></text>
        <text
           xml:space="preserve"
           transform="matrix(0.555283,-0.831661,-0.831661,-0.555283,139.516,257.099)"
           style="font-variant:normal;font-weight:normal;font-size:54px;font-family:'3unknown';-inkscape-font-specification:'3unknown';writing-mode:lr-tb;fill:#ffffff;fill-opacity:1;fill-rule:nonzero;stroke:none"
           id="text34"><tspan
             x="0"
             y="0"
             id="tspan32">O</tspan></text>
        <text
           xml:space="preserve"
           transform="matrix(0.632755,-0.774352,-0.774352,-0.632755,160.045,226.72)"
           style="font-variant:normal;font-weight:normal;font-size:54px;font-family:'3unknown';-inkscape-font-specification:'3unknown';writing-mode:lr-tb;fill:#ffffff;fill-opacity:1;fill-rule:nonzero;stroke:none"
           id="text38"><tspan
             x="0"
             y="0"
             id="tspan36">L</tspan></text>
        <text
           xml:space="preserve"
           transform="matrix(0.681845,-0.731497,-0.731497,-0.681845,177.375,205.764)"
           style="font-variant:normal;font-weight:normal;font-size:54px;font-family:'3unknown';-inkscape-font-specification:'3unknown';writing-mode:lr-tb;fill:#ffffff;fill-opacity:1;fill-rule:nonzero;stroke:none"
           id="text42"><tspan
             x="0"
             y="0"
             id="tspan40">I</tspan></text>
        <text
           xml:space="preserve"
           transform="matrix(0.738381,-0.674383,-0.674383,-0.738381,188.534,193.204)"
           style="font-variant:normal;font-weight:normal;font-size:54px;font-family:'3unknown';-inkscape-font-specification:'3unknown';writing-mode:lr-tb;fill:#ffffff;fill-opacity:1;fill-rule:nonzero;stroke:none"
           id="text46"><tspan
             x="0"
             y="0"
             id="tspan44">D</tspan></text>
        <text
           xml:space="preserve"
           transform="matrix(0.82088,-0.5711,-0.5711,-0.82088,216.264,167.419)"
           style="font-variant:normal;font-weight:normal;font-size:54px;font-family:'3unknown';-inkscape-font-specification:'3unknown';writing-mode:lr-tb;fill:#ffffff;fill-opacity:1;fill-rule:nonzero;stroke:none"
           id="text50"><tspan
             x="0"
             y="0"
             id="tspan48">W</tspan></text>
        <text
           xml:space="preserve"
           transform="matrix(0.892969,-0.450119,-0.450119,-0.892969,259.882,137.89)"
           style="font-variant:normal;font-weight:normal;font-size:54px;font-family:'3unknown';-inkscape-font-specification:'3unknown';writing-mode:lr-tb;fill:#ffffff;fill-opacity:1;fill-rule:nonzero;stroke:none"
           id="text54"><tspan
             x="0"
             y="0"
             id="tspan52">O</tspan></text>
        <text
           xml:space="preserve"
           transform="matrix(0.936697,-0.350141,-0.350141,-0.936697,293.138,121.208)"
           style="font-variant:normal;font-weight:normal;font-size:54px;font-family:'3unknown';-inkscape-font-specification:'3unknown';writing-mode:lr-tb;fill:#ffffff;fill-opacity:1;fill-rule:nonzero;stroke:none"
           id="text58"><tspan
             x="0"
             y="0"
             id="tspan56">R</tspan></text>
        <text
           xml:space="preserve"
           transform="matrix(0.968846,-0.247663,-0.247663,-0.968846,326.636,108.773)"
           style="font-variant:normal;font-weight:normal;font-size:54px;font-family:'3unknown';-inkscape-font-specification:'3unknown';writing-mode:lr-tb;fill:#ffffff;fill-opacity:1;fill-rule:nonzero;stroke:none"
           id="text62"><tspan
             x="0"
             y="0"
             id="tspan60">K</tspan></text>
        <text
           xml:space="preserve"
           transform="matrix(0.989755,-0.142773,-0.142773,-0.989755,362.596,99.8609)"
           style="font-variant:normal;font-weight:normal;font-size:54px;font-family:'3unknown';-inkscape-font-specification:'3unknown';writing-mode:lr-tb;fill:#ffffff;fill-opacity:1;fill-rule:nonzero;stroke:none"
           id="text66"><tspan
             x="0"
             y="0"
             id="tspan64">S</tspan></text>
        <text
           xml:space="preserve"
           transform="matrix(0.999869,0.0162111,0.0162111,-0.999869,409.136,94.0238)"
           style="font-variant:normal;font-weight:normal;font-size:54px;font-family:'3unknown';-inkscape-font-specification:'3unknown';writing-mode:lr-tb;fill:#ffffff;fill-opacity:1;fill-rule:nonzero;stroke:none"
           id="text70"><tspan
             x="0"
             y="0"
             id="tspan68">P</tspan></text>
        <text
           xml:space="preserve"
           transform="matrix(0.994352,0.106135,0.106135,-0.994352,443.497,94.343)"
           style="font-variant:normal;font-weight:normal;font-size:54px;font-family:'3unknown';-inkscape-font-specification:'3unknown';writing-mode:lr-tb;fill:#ffffff;fill-opacity:1;fill-rule:nonzero;stroke:none"
           id="text74"><tspan
             x="0"
             y="0"
             id="tspan72">R</tspan></text>
        <text
           xml:space="preserve"
           transform="matrix(0.975333,0.220737,0.220737,-0.975333,480.445,98.3602)"
           style="font-variant:normal;font-weight:normal;font-size:54px;font-family:'3unknown';-inkscape-font-specification:'3unknown';writing-mode:lr-tb;fill:#ffffff;fill-opacity:1;fill-rule:nonzero;stroke:none"
           id="text78"><tspan
             x="0"
             y="0"
             id="tspan76">O</tspan></text>
        <text
           xml:space="preserve"
           transform="matrix(0.945582,0.325385,0.325385,-0.945582,518.748,107.353)"
           style="font-variant:normal;font-weight:normal;font-size:54px;font-family:'3unknown';-inkscape-font-specification:'3unknown';writing-mode:lr-tb;fill:#ffffff;fill-opacity:1;fill-rule:nonzero;stroke:none"
           id="text82"><tspan
             x="0"
             y="0"
             id="tspan80">F</tspan></text>
        <text
           xml:space="preserve"
           transform="matrix(0.909459,0.415793,0.415793,-0.909459,548.745,117.753)"
           style="font-variant:normal;font-weight:normal;font-size:54px;font-family:'3unknown';-inkscape-font-specification:'3unknown';writing-mode:lr-tb;fill:#ffffff;fill-opacity:1;fill-rule:nonzero;stroke:none"
           id="text86"><tspan
             x="0"
             y="0"
             id="tspan84">E</tspan></text>
        <text
           xml:space="preserve"
           transform="matrix(0.862777,0.505585,0.505585,-0.862777,579.225,131.866)"
           style="font-variant:normal;font-weight:normal;font-size:54px;font-family:'3unknown';-inkscape-font-specification:'3unknown';writing-mode:lr-tb;fill:#ffffff;fill-opacity:1;fill-rule:nonzero;stroke:none"
           id="text90"><tspan
             x="0"
             y="0"
             id="tspan88">S</tspan></text>
        <text
           xml:space="preserve"
           transform="matrix(0.811733,0.584029,0.584029,-0.811733,605.984,147.591)"
           style="font-variant:normal;font-weight:normal;font-size:54px;font-family:'3unknown';-inkscape-font-specification:'3unknown';writing-mode:lr-tb;fill:#ffffff;fill-opacity:1;fill-rule:nonzero;stroke:none"
           id="text94"><tspan
             x="0"
             y="0"
             id="tspan92">S</tspan></text>
        <text
           xml:space="preserve"
           transform="matrix(0.764517,0.644604,0.644604,-0.764517,631.964,166.698)"
           style="font-variant:normal;font-weight:normal;font-size:54px;font-family:'3unknown';-inkscape-font-specification:'3unknown';writing-mode:lr-tb;fill:#ffffff;fill-opacity:1;fill-rule:nonzero;stroke:none"
           id="text98"><tspan
             x="0"
             y="0"
             id="tspan96">I</tspan></text>
        <text
           xml:space="preserve"
           transform="matrix(0.707241,0.706973,0.706973,-0.707241,646.02,178.057)"
           style="font-variant:normal;font-weight:normal;font-size:54px;font-family:'3unknown';-inkscape-font-specification:'3unknown';writing-mode:lr-tb;fill:#ffffff;fill-opacity:1;fill-rule:nonzero;stroke:none"
           id="text102"><tspan
             x="0"
             y="0"
             id="tspan100">O</tspan></text>
        <text
           xml:space="preserve"
           transform="matrix(0.615907,0.787819,0.787819,-0.615907,673.479,205.494)"
           style="font-variant:normal;font-weight:normal;font-size:54px;font-family:'3unknown';-inkscape-font-specification:'3unknown';writing-mode:lr-tb;fill:#ffffff;fill-opacity:1;fill-rule:nonzero;stroke:none"
           id="text106"><tspan
             x="0"
             y="0"
             id="tspan104">N</tspan></text>
        <text
           xml:space="preserve"
           transform="matrix(0.518952,0.854804,0.854804,-0.518952,698.763,238.081)"
           style="font-variant:normal;font-weight:normal;font-size:54px;font-family:'3unknown';-inkscape-font-specification:'3unknown';writing-mode:lr-tb;fill:#ffffff;fill-opacity:1;fill-rule:nonzero;stroke:none"
           id="text110"><tspan
             x="0"
             y="0"
             id="tspan108">A</tspan></text>
        <text
           xml:space="preserve"
           transform="matrix(0.427896,0.903828,0.903828,-0.427896,718.485,271.198)"
           style="font-variant:normal;font-weight:normal;font-size:54px;font-family:'3unknown';-inkscape-font-specification:'3unknown';writing-mode:lr-tb;fill:#ffffff;fill-opacity:1;fill-rule:nonzero;stroke:none"
           id="text114"><tspan
             x="0"
             y="0"
             id="tspan112">L</tspan></text>
        <text
           xml:space="preserve"
           transform="matrix(1,0,0,-1,294.536,430.636)"
           style="font-variant:normal;font-weight:600;font-size:57.561px;font-family:'3unknown';-inkscape-font-specification:'3unknown';writing-mode:lr-tb;fill:#ffffff;fill-opacity:1;fill-rule:nonzero;stroke:none"
           id="text120"><tspan
             x="0 37.932102 73.273903 110.45801 162.26219 179.4722 221.5493"
             y="0"
             sodipodi:role="line"
             id="tspan116">DRAWING</tspan><tspan
             x="46.335899 77.591301 116.09859 154.31882 182.81099"
             y="60"
             sodipodi:role="line"
             id="tspan118">TOOLS</tspan></text>
      </g>
    </g>
  </g>
</svg>
