<?xml version="1.0" encoding="UTF-8" standalone="no"?>
<!-- Created with Inkscape (http://www.inkscape.org/) -->

<svg
   version="1.1"
   id="svg2"
   width="1133.8533"
   height="1133.8533"
   viewBox="0 0 1133.8533 1133.8533"
   sodipodi:docname="PROFESSIONAL - SHEET METAL.eps"
   xmlns:inkscape="http://www.inkscape.org/namespaces/inkscape"
   xmlns:sodipodi="http://sodipodi.sourceforge.net/DTD/sodipodi-0.dtd"
   xmlns="http://www.w3.org/2000/svg"
   xmlns:svg="http://www.w3.org/2000/svg">
  <defs
     id="defs6" />
  <sodipodi:namedview
     id="namedview4"
     pagecolor="#ffffff"
     bordercolor="#000000"
     borderopacity="0.25"
     inkscape:showpageshadow="2"
     inkscape:pageopacity="0.0"
     inkscape:pagecheckerboard="0"
     inkscape:deskcolor="#d1d1d1" />
  <g
     id="g8"
     inkscape:groupmode="layer"
     inkscape:label="ink_ext_XXXXXX"
     transform="matrix(1.3333333,0,0,-1.3333333,0,1133.8533)">
    <g
       id="g10"
       transform="scale(0.1)">
      <path
         d="m 8361.38,3845.68 -0.97,-1.21 c -138.63,-173.23 -179.37,-405.19 -108.06,-615.29 l 0.06,-0.17 c 98,-288.7 -17.74,-606.73 -278.39,-764.89 l -0.15,-0.1 c -189.7,-115.11 -307.59,-319 -312.74,-540.82 l -0.03,-1.13 c -7.04,-304.34 -224.31,-563.06 -522.86,-622.61 l -0.7,-0.14 c -217.83,-43.45 -398.42,-195.09 -478.89,-402.129 l -0.08,-0.222 C 6548.21,613 6255.48,443.73 5954.32,489.738 l -0.96,0.141 c -219.13,33.469 -440.22,-47 -586.57,-213.488 l -0.62,-0.711 C 5165.02,46.8516 4831.95,-11.6406 4564.88,134.98 v 0 c -194.89,106.989 -430.92,106.989 -625.82,0 l -0.02,-0.011 C 3671.97,-11.6406 3338.92,46.8398 3137.76,275.68 l -0.64,0.73 c -146.35,166.488 -367.43,246.949 -586.55,213.481 l -0.98,-0.141 c -301.17,-46.012 -593.9,123.27 -704.26,407.238 l -0.09,0.242 c -80.46,207.03 -261.04,358.68 -478.86,402.13 l -0.72,0.14 c -298.54,59.56 -515.805,318.28 -522.855,622.62 l -0.024,1.1 c -5.136,221.83 -123.035,425.73 -312.722,540.84 l -0.137,0.08 C 269.27,2622.31 153.523,2940.35 251.531,3229.05 l 0.039,0.13 c 71.321,210.11 30.586,442.07 -108.047,615.31 l -0.964,1.19 c -190.0785,237.51 -190.0785,575.07 0,812.59 l 0.964,1.21 c 138.645,173.22 179.375,405.18 108.059,615.28 l -0.051,0.17 c -98.008,288.7 17.746,606.73 278.391,764.89 l 0.156,0.1 c 189.688,115.11 307.59,319 312.727,540.83 l 0.027,1.12 c 7.051,304.34 224.318,563.06 522.858,622.62 l 0.72,0.13 c 217.83,43.46 398.41,195.1 478.87,402.14 l 0.09,0.22 c 110.36,283.97 403.09,453.23 704.26,407.23 l 0.96,-0.14 c 219.13,-33.48 440.21,46.99 586.56,213.48 l 0.62,0.72 c 201.16,228.82 534.22,287.3 801.29,140.69 v 0 c 194.9,-106.98 430.93,-106.98 625.82,0 l 0.02,0.01 c 267.06,146.6 600.13,88.12 801.27,-140.7 l 0.66,-0.74 c 146.34,-166.49 367.43,-246.95 586.55,-213.48 l 0.98,0.15 c 301.17,46 593.89,-123.27 704.24,-407.24 l 0.1,-0.24 c 80.47,-207.04 261.04,-358.68 478.87,-402.14 l 0.71,-0.14 c 298.55,-59.55 515.81,-318.27 522.85,-622.62 l 0.03,-1.1 c 5.13,-221.83 123.03,-425.73 312.73,-540.84 l 0.13,-0.08 c 260.65,-158.18 376.4,-476.2 278.39,-764.9 l -0.04,-0.14 c -71.32,-210.1 -30.59,-442.07 108.05,-615.3 l 0.96,-1.2 c 190.08,-237.51 190.08,-575.07 0,-812.58"
         style="fill:#225089;fill-opacity:1;fill-rule:nonzero;stroke:none"
         id="path12" />
      <path
         d="M 4251.97,8117.99 C 2116.83,8117.99 385.938,6387.11 385.938,4251.97 385.938,2116.83 2116.83,385.961 4251.97,385.961 6387.12,385.961 8118,2116.83 8118,4251.97 8118,6387.11 6387.12,8117.99 4251.97,8117.99"
         style="fill:#ffffff;fill-opacity:1;fill-rule:nonzero;stroke:none"
         id="path14" />
      <path
         d="m 2606.7,6871.33 c 123.93,5.48 270.59,-19.21 297.9,-100.97 44.78,-134.02 -182.19,-329.44 -379.97,-425.36 -48.48,-23.52 -77.86,-29.97 -90.11,-28.37 -11.69,1.52 -13.48,12.42 -9.69,19.93 7.05,14.08 38.93,42.8 81.63,74 222.64,162.6 295.02,281.87 252.99,330.23 -26.96,30.95 -139.82,52.46 -257.01,52.46 -31.81,0 -115.42,-6.9 -124.01,20.64 -6.99,22.56 105.22,52 228.27,57.44"
         style="fill:#225089;fill-opacity:1;fill-rule:evenodd;stroke:none"
         id="path16" />
      <path
         d="m 2329.75,6260.44 c 102.98,5.39 228.1,-10.72 298.38,-58.91 34.93,-23.93 59.51,-68 45.27,-118.5 -40.55,-143.35 -191.94,-316.78 -528.32,-450.05 -106.96,-42.38 -191.07,-58.59 -208.71,-47.22 -18.99,12.22 36.18,106.82 52.78,138.22 53.7,101.68 120.79,200.69 186.2,291.33 24.09,33.37 61.27,91.21 94.95,86.58 30.15,-4.14 -5.16,-65.63 -28.4,-104.73 -39.02,-65.6 -146.51,-247.85 -111.05,-258.73 78.4,-24.1 446.2,226.66 391.96,366.32 -25.13,64.82 -184.83,71 -285.4,71 -45.75,0 -145.66,-9.69 -151.2,21.71 -5.96,28.96 151.8,58.12 243.54,62.98"
         style="fill:#225089;fill-opacity:1;fill-rule:evenodd;stroke:none"
         id="path18" />
      <path
         d="m 3132.67,6429.75 c 62.33,-10.17 113.13,-18.05 124.8,-41.84 13.09,-26.94 -54.79,-28.58 -89,-29.21 -163.98,-2.88 -262.84,-5.79 -267.8,-56.14 -6.43,-64.83 70.07,-130.08 145.63,-221.59 69.02,-83.53 147.49,-165.94 124.87,-242.82 -28.19,-95.75 -158.07,-116 -281.73,-116.02 -118.45,-0.09 -230.67,17.08 -277.81,25.54 -58.72,10.49 -50,36.7 -34.33,45.14 17.46,9.42 117.3,9.65 186.68,13.37 57.1,3.04 222.93,2.96 248.77,41.35 31.72,46.99 -45.9,127.45 -117.18,211.69 -88.95,105.13 -186.64,213.64 -134.94,292.9 66.91,102.55 262.64,95.52 372.04,77.63"
         style="fill:#225089;fill-opacity:1;fill-rule:evenodd;stroke:none"
         id="path20" />
      <path
         d="m 5638.62,6132.15 c 130.59,0 180.91,40.88 201.58,135.33 l 30.95,147.14 c 2.07,9.84 -4.36,12.83 -12.55,12.83 h -63.15 l -17.35,-84.67 -9.94,-45.05 -8.28,-39.15 c -11.56,-53.32 -49.27,-77.35 -113.25,-77.35 -70.36,0 -89.19,23.44 -78.18,77.35 0,0 2.71,13.46 3.64,17.51 l 14.56,66.69 17.39,84.67 h -63.18 c -8.17,0 -15.87,-2.99 -17.96,-12.83 l -31.04,-147.14 c -21.2,-103.75 35.24,-135.33 146.76,-135.33 z M 3420.37,5972.57 c -9.45,-40.64 25.3,-60.28 95.92,-100.38 77.17,-43.8 94.82,-47.15 87.71,-70.25 -5.69,-18.6 -25.93,-19.37 -60.7,-19.37 h -137.53 c -15.61,0 -24.7,-5.88 -27.41,-18.65 l -5.52,-25.78 h 173.39 c 79.39,0 129.12,4.49 147.19,48.86 8.76,21.64 8.67,44 -12.75,66.11 -10.9,11.25 -27,21.13 -49.21,32.58 -99.12,51.25 -125,57.18 -118.73,82 3.54,13.96 14.09,14.47 51.36,14.47 h 116.25 c 15.69,0 24.76,5.89 27.47,18.64 l 5.73,26.92 h -147.11 c -83.33,0 -133.37,-0.44 -146.06,-55.15 z m 764.68,0 c -9.41,-40.64 25.34,-60.28 95.89,-100.38 77.27,-43.8 94.91,-47.15 87.75,-70.25 -5.72,-18.6 -25.96,-19.37 -60.71,-19.37 h -137.49 c -15.64,0 -24.73,-5.88 -27.44,-18.65 l -5.46,-25.78 h 173.38 c 79.36,0 129.08,4.49 147.11,48.86 8.87,21.64 8.77,44 -12.65,66.11 -10.98,11.25 -27.03,21.13 -49.31,32.58 -99.07,51.25 -124.93,57.18 -118.68,82 3.5,13.96 14.05,14.47 51.35,14.47 h 116.32 c 15.59,0 24.7,5.89 27.39,18.64 l 5.77,26.92 h -147.14 c -83.34,0 -133.35,-0.44 -146.08,-55.15 z m 1937.96,0 c -9.4,-40.64 25.36,-60.28 95.84,-100.38 77.28,-43.8 94.94,-47.15 87.74,-70.25 -5.64,-18.6 -25.9,-19.37 -60.62,-19.37 h -137.53 c -15.65,0 -24.73,-5.88 -27.44,-18.65 l -5.46,-25.78 h 173.4 c 79.32,0 129.04,4.49 147.1,48.86 8.83,21.64 8.73,44 -12.71,66.11 -10.91,11.25 -27.03,21.13 -49.27,32.58 -99.05,51.25 -124.97,57.18 -118.66,82 3.45,13.96 14.08,14.47 51.37,14.47 h 116.29 c 15.6,0 24.67,5.89 27.39,18.64 l 5.77,26.92 h -147.11 c -83.35,0 -133.37,-0.44 -146.1,-55.15 z M 4978.7,6187.46 c 8.78,21.66 8.71,44.06 -12.73,66.12 -10.92,11.27 -27,21.12 -49.28,32.67 -99.07,51.24 -124.94,57.1 -118.71,81.93 3.52,13.92 14.11,14.49 51.42,14.49 h 116.23 c 15.67,0 24.75,5.86 27.49,18.6 l 5.7,27.05 H 4851.7 c -83.34,0 -133.36,-0.49 -146.13,-55.26 -9.37,-40.59 25.39,-60.28 95.93,-100.39 77.22,-43.8 94.84,-47.13 87.78,-70.28 -5.75,-18.61 -25.97,-19.34 -60.69,-19.34 h -137.51 c -15.66,0 -24.76,-5.88 -27.48,-18.64 l -5.44,-25.83 h 173.37 c 79.33,0 129.12,4.49 147.17,48.88 z m -369.43,0 c 8.77,21.66 8.69,44.06 -12.69,66.12 -10.96,11.27 -27.05,21.12 -49.29,32.67 -99.15,51.24 -124.97,57.1 -118.68,81.93 3.48,13.92 14.01,14.49 51.39,14.49 h 116.19 c 15.68,0 24.77,5.86 27.44,18.6 l 5.8,27.05 h -147.16 c -83.33,0 -133.34,-0.49 -146.06,-55.26 -9.43,-40.59 25.35,-60.28 95.88,-100.39 77.2,-43.8 94.86,-47.13 87.76,-70.28 -5.66,-18.61 -25.93,-19.34 -60.74,-19.34 h -137.42 c -15.68,0 -24.74,-5.88 -27.51,-18.64 l -5.46,-25.83 h 173.42 c 79.35,0 129.07,4.49 147.13,48.88 z m 1612.74,239.99 c -15.65,0 -24.48,-4.89 -26.82,-15.7 l -6.21,-29.15 h 124.33 l -51.83,-244.02 h 55.76 c 15.68,0 24.81,5.88 27.91,20.55 l 47.54,223.47 h 103.75 c 14.71,0 19.86,5.93 22.42,17.7 l 5.71,27.15 z m -2708.95,-80.32 c -7.83,0 -13.72,-4.88 -14.76,-9.79 l -42.29,-198.76 h 187.05 c 104.75,0 177.36,35.6 200.03,146.28 16.89,82.39 -22.14,142.59 -128.87,142.59 h -226.2 c 0,0 -0.49,-2.05 -0.94,-3.75 -5.1,-19.43 -2.41,-40.88 33.34,-40.88 h 164.43 c 79.11,0 90.41,-36.19 74.6,-99.93 -15.52,-62.56 -42.58,-94.78 -101.97,-99.71 h -112.64 l 34.79,163.95 z m 2664.65,-181.52 c 2.68,12.66 -2.17,17.57 -14.85,17.57 h -169.4 l 49.86,234.48 c 1,4.9 -2.87,9.79 -9.68,9.79 h -67.58 l -61.37,-288.87 h 267.24 z M 5673.3,6026.93 h -71.53 l -138.48,-112.58 -90.6,112.58 h -71.48 c -11.73,0 -18.17,-6.82 -20.61,-18.59 l -57.46,-270.2 h 60.73 c 12.74,0 19.84,5.85 22.13,16.62 l 43.01,202.24 69.78,-91.06 c 2.06,-3.89 7.9,-8.8 16.67,-8.8 h 31.4 c 8.81,0 16.66,4.91 20.43,8.8 l 108.44,91.06 -43.02,-202.24 c -2.27,-10.77 2.34,-16.62 15.13,-16.62 h 60.66 l 57.52,270.2 c 2.42,11.77 -0.95,18.59 -12.72,18.59 z m -756.53,-18.59 -57.4,-270.2 h 291.73 l 6.15,28.88 c 2.54,11.79 -0.6,15.7 -15.3,15.7 h -193.8 l 16.46,77.5 h 171.32 c 4.92,0 8.45,2.92 9.3,6.88 l 6.55,30.74 c 0.8,3.88 -1.52,6.87 -6.38,6.87 h -171.38 l 16.49,77.38 h 187.01 c 8.82,0 17.58,0 19.95,10.78 l 7.16,34.06 h -263.35 c -13.69,0 -21.82,-5.8 -24.51,-18.59 z m 866.28,0 -57.42,-270.2 h 291.82 l 6.07,28.88 c 2.52,11.79 -0.58,15.7 -15.23,15.7 h -193.86 l 16.48,77.5 h 171.32 c 4.91,0 8.47,2.92 9.25,6.88 l 6.59,30.74 c 0.83,3.88 -1.58,6.87 -6.37,6.87 h -171.36 l 16.43,77.38 h 187.03 c 8.85,0 17.6,0 19.87,10.78 l 7.25,34.06 h -263.34 c -13.73,0 -21.76,-5.8 -24.53,-18.59 z m -1749.82,8.85 -28.01,-131.5 c -48.92,-13.75 -175.69,-38.89 -155.89,54.1 l 18.53,87.14 h -66.63 c -7.85,0 -13.78,-4.82 -14.82,-9.74 l -16.82,-79.33 c -32.05,-150.8 124.07,-130.2 225.12,-101.85 l -20.81,-97.87 h 55.75 c 15.7,0 24.76,5.85 27.94,20.51 l 56.93,268.28 H 4047 c -6.83,0 -12.77,-4.82 -13.77,-9.74 z m 833.46,-17.36 5.82,27.08 h -302.52 c -15.67,0 -24.55,-4.86 -26.85,-15.63 l -6.23,-29.12 h 124.32 l -51.8,-244.02 h 55.78 c 15.64,0 24.68,5.85 27.92,20.51 l 47.46,223.51 h 103.78 c 14.68,0 19.84,5.89 22.32,17.67 z m -870.05,306.2 c 11.86,56.27 47.73,76.64 111.73,76.64 67.64,0 85.37,-23.21 74.36,-76.64 0,0 -2.77,-13.36 -3.72,-17.38 -1.32,-5.97 -4.32,-21.5 -21.85,-21.5 H 3988.4 Z m -95.28,-167.45 h 59.69 l 17.39,83.99 h 186.02 l -17.35,-83.99 h 59.72 c 7.86,0 15.32,2.96 17.37,12.75 l 31.06,145.85 c 22.78,110.66 -45.52,134.16 -137.58,134.16 -110.31,0 -173.28,-25.33 -197.31,-134.16 l -31,-145.85 c -2.08,-9.79 4.13,-12.75 11.99,-12.75 z m 1255.55,167.45 c 11.9,56.27 47.72,76.64 111.72,76.64 67.67,0 85.36,-23.21 74.39,-76.64 0,0 -2.75,-13.36 -3.74,-17.38 -1.33,-5.97 -4.32,-21.5 -21.83,-21.5 h -168.8 z m -95.27,-167.45 h 59.72 l 17.41,83.99 h 185.98 l -17.38,-83.99 h 59.75 c 7.83,0 15.32,2.96 17.39,12.75 l 31,145.85 c 22.86,110.66 -45.46,134.16 -137.53,134.16 -110.34,0 -173.3,-25.33 -197.35,-134.16 l -31,-145.85 c -2.04,-9.79 4.11,-12.75 12.01,-12.75"
         style="fill:#225089;fill-opacity:1;fill-rule:nonzero;stroke:none"
         id="path22" />
      <path
         d="m 624.578,4251.97 c 0,-2003.34 1624.042,-3627.372 3627.392,-3627.372 2003.35,0 3627.4,1624.032 3627.4,3627.372 0,360.39 -52.82,708.39 -150.69,1036.97 H 775.266 C 677.395,4960.36 624.578,4612.36 624.578,4251.97"
         style="fill:#db2524;fill-opacity:1;fill-rule:nonzero;stroke:none"
         id="path24" />
      <g
         id="g26"
         transform="scale(10)">
        <text
           xml:space="preserve"
           transform="matrix(0.466063,-0.884752,-0.884752,-0.466063,125.198,284.559)"
           style="font-variant:normal;font-weight:normal;font-size:54px;font-family:'3unknown';-inkscape-font-specification:'3unknown';writing-mode:lr-tb;fill:#ffffff;fill-opacity:1;fill-rule:nonzero;stroke:none"
           id="text30"><tspan
             x="0"
             y="0"
             id="tspan28">S</tspan></text>
        <text
           xml:space="preserve"
           transform="matrix(0.555283,-0.831661,-0.831661,-0.555283,139.504,257.1)"
           style="font-variant:normal;font-weight:normal;font-size:54px;font-family:'3unknown';-inkscape-font-specification:'3unknown';writing-mode:lr-tb;fill:#ffffff;fill-opacity:1;fill-rule:nonzero;stroke:none"
           id="text34"><tspan
             x="0"
             y="0"
             id="tspan32">O</tspan></text>
        <text
           xml:space="preserve"
           transform="matrix(0.632755,-0.774352,-0.774352,-0.632755,160.034,226.721)"
           style="font-variant:normal;font-weight:normal;font-size:54px;font-family:'3unknown';-inkscape-font-specification:'3unknown';writing-mode:lr-tb;fill:#ffffff;fill-opacity:1;fill-rule:nonzero;stroke:none"
           id="text38"><tspan
             x="0"
             y="0"
             id="tspan36">L</tspan></text>
        <text
           xml:space="preserve"
           transform="matrix(0.681845,-0.731497,-0.731497,-0.681845,177.363,205.765)"
           style="font-variant:normal;font-weight:normal;font-size:54px;font-family:'3unknown';-inkscape-font-specification:'3unknown';writing-mode:lr-tb;fill:#ffffff;fill-opacity:1;fill-rule:nonzero;stroke:none"
           id="text42"><tspan
             x="0"
             y="0"
             id="tspan40">I</tspan></text>
        <text
           xml:space="preserve"
           transform="matrix(0.738381,-0.674383,-0.674383,-0.738381,188.522,193.205)"
           style="font-variant:normal;font-weight:normal;font-size:54px;font-family:'3unknown';-inkscape-font-specification:'3unknown';writing-mode:lr-tb;fill:#ffffff;fill-opacity:1;fill-rule:nonzero;stroke:none"
           id="text46"><tspan
             x="0"
             y="0"
             id="tspan44">D</tspan></text>
        <text
           xml:space="preserve"
           transform="matrix(0.82088,-0.5711,-0.5711,-0.82088,216.252,167.42)"
           style="font-variant:normal;font-weight:normal;font-size:54px;font-family:'3unknown';-inkscape-font-specification:'3unknown';writing-mode:lr-tb;fill:#ffffff;fill-opacity:1;fill-rule:nonzero;stroke:none"
           id="text50"><tspan
             x="0"
             y="0"
             id="tspan48">W</tspan></text>
        <text
           xml:space="preserve"
           transform="matrix(0.892969,-0.450119,-0.450119,-0.892969,259.87,137.891)"
           style="font-variant:normal;font-weight:normal;font-size:54px;font-family:'3unknown';-inkscape-font-specification:'3unknown';writing-mode:lr-tb;fill:#ffffff;fill-opacity:1;fill-rule:nonzero;stroke:none"
           id="text54"><tspan
             x="0"
             y="0"
             id="tspan52">O</tspan></text>
        <text
           xml:space="preserve"
           transform="matrix(0.936697,-0.350141,-0.350141,-0.936697,293.126,121.209)"
           style="font-variant:normal;font-weight:normal;font-size:54px;font-family:'3unknown';-inkscape-font-specification:'3unknown';writing-mode:lr-tb;fill:#ffffff;fill-opacity:1;fill-rule:nonzero;stroke:none"
           id="text58"><tspan
             x="0"
             y="0"
             id="tspan56">R</tspan></text>
        <text
           xml:space="preserve"
           transform="matrix(0.968846,-0.247663,-0.247663,-0.968846,326.625,108.774)"
           style="font-variant:normal;font-weight:normal;font-size:54px;font-family:'3unknown';-inkscape-font-specification:'3unknown';writing-mode:lr-tb;fill:#ffffff;fill-opacity:1;fill-rule:nonzero;stroke:none"
           id="text62"><tspan
             x="0"
             y="0"
             id="tspan60">K</tspan></text>
        <text
           xml:space="preserve"
           transform="matrix(0.989755,-0.142773,-0.142773,-0.989755,362.584,99.8621)"
           style="font-variant:normal;font-weight:normal;font-size:54px;font-family:'3unknown';-inkscape-font-specification:'3unknown';writing-mode:lr-tb;fill:#ffffff;fill-opacity:1;fill-rule:nonzero;stroke:none"
           id="text66"><tspan
             x="0"
             y="0"
             id="tspan64">S</tspan></text>
        <text
           xml:space="preserve"
           transform="matrix(0.999869,0.0162111,0.0162111,-0.999869,409.124,94.025)"
           style="font-variant:normal;font-weight:normal;font-size:54px;font-family:'3unknown';-inkscape-font-specification:'3unknown';writing-mode:lr-tb;fill:#ffffff;fill-opacity:1;fill-rule:nonzero;stroke:none"
           id="text70"><tspan
             x="0"
             y="0"
             id="tspan68">P</tspan></text>
        <text
           xml:space="preserve"
           transform="matrix(0.994352,0.106135,0.106135,-0.994352,443.485,94.3441)"
           style="font-variant:normal;font-weight:normal;font-size:54px;font-family:'3unknown';-inkscape-font-specification:'3unknown';writing-mode:lr-tb;fill:#ffffff;fill-opacity:1;fill-rule:nonzero;stroke:none"
           id="text74"><tspan
             x="0"
             y="0"
             id="tspan72">R</tspan></text>
        <text
           xml:space="preserve"
           transform="matrix(0.975333,0.220737,0.220737,-0.975333,480.434,98.3609)"
           style="font-variant:normal;font-weight:normal;font-size:54px;font-family:'3unknown';-inkscape-font-specification:'3unknown';writing-mode:lr-tb;fill:#ffffff;fill-opacity:1;fill-rule:nonzero;stroke:none"
           id="text78"><tspan
             x="0"
             y="0"
             id="tspan76">O</tspan></text>
        <text
           xml:space="preserve"
           transform="matrix(0.945582,0.325385,0.325385,-0.945582,518.736,107.354)"
           style="font-variant:normal;font-weight:normal;font-size:54px;font-family:'3unknown';-inkscape-font-specification:'3unknown';writing-mode:lr-tb;fill:#ffffff;fill-opacity:1;fill-rule:nonzero;stroke:none"
           id="text82"><tspan
             x="0"
             y="0"
             id="tspan80">F</tspan></text>
        <text
           xml:space="preserve"
           transform="matrix(0.909459,0.415793,0.415793,-0.909459,548.733,117.754)"
           style="font-variant:normal;font-weight:normal;font-size:54px;font-family:'3unknown';-inkscape-font-specification:'3unknown';writing-mode:lr-tb;fill:#ffffff;fill-opacity:1;fill-rule:nonzero;stroke:none"
           id="text86"><tspan
             x="0"
             y="0"
             id="tspan84">E</tspan></text>
        <text
           xml:space="preserve"
           transform="matrix(0.862777,0.505585,0.505585,-0.862777,579.213,131.867)"
           style="font-variant:normal;font-weight:normal;font-size:54px;font-family:'3unknown';-inkscape-font-specification:'3unknown';writing-mode:lr-tb;fill:#ffffff;fill-opacity:1;fill-rule:nonzero;stroke:none"
           id="text90"><tspan
             x="0"
             y="0"
             id="tspan88">S</tspan></text>
        <text
           xml:space="preserve"
           transform="matrix(0.811733,0.584029,0.584029,-0.811733,605.973,147.592)"
           style="font-variant:normal;font-weight:normal;font-size:54px;font-family:'3unknown';-inkscape-font-specification:'3unknown';writing-mode:lr-tb;fill:#ffffff;fill-opacity:1;fill-rule:nonzero;stroke:none"
           id="text94"><tspan
             x="0"
             y="0"
             id="tspan92">S</tspan></text>
        <text
           xml:space="preserve"
           transform="matrix(0.764517,0.644604,0.644604,-0.764517,631.952,166.699)"
           style="font-variant:normal;font-weight:normal;font-size:54px;font-family:'3unknown';-inkscape-font-specification:'3unknown';writing-mode:lr-tb;fill:#ffffff;fill-opacity:1;fill-rule:nonzero;stroke:none"
           id="text98"><tspan
             x="0"
             y="0"
             id="tspan96">I</tspan></text>
        <text
           xml:space="preserve"
           transform="matrix(0.707241,0.706973,0.706973,-0.707241,646.008,178.058)"
           style="font-variant:normal;font-weight:normal;font-size:54px;font-family:'3unknown';-inkscape-font-specification:'3unknown';writing-mode:lr-tb;fill:#ffffff;fill-opacity:1;fill-rule:nonzero;stroke:none"
           id="text102"><tspan
             x="0"
             y="0"
             id="tspan100">O</tspan></text>
        <text
           xml:space="preserve"
           transform="matrix(0.615907,0.787819,0.787819,-0.615907,673.467,205.495)"
           style="font-variant:normal;font-weight:normal;font-size:54px;font-family:'3unknown';-inkscape-font-specification:'3unknown';writing-mode:lr-tb;fill:#ffffff;fill-opacity:1;fill-rule:nonzero;stroke:none"
           id="text106"><tspan
             x="0"
             y="0"
             id="tspan104">N</tspan></text>
        <text
           xml:space="preserve"
           transform="matrix(0.518952,0.854804,0.854804,-0.518952,698.751,238.082)"
           style="font-variant:normal;font-weight:normal;font-size:54px;font-family:'3unknown';-inkscape-font-specification:'3unknown';writing-mode:lr-tb;fill:#ffffff;fill-opacity:1;fill-rule:nonzero;stroke:none"
           id="text110"><tspan
             x="0"
             y="0"
             id="tspan108">A</tspan></text>
        <text
           xml:space="preserve"
           transform="matrix(0.427896,0.903828,0.903828,-0.427896,718.474,271.199)"
           style="font-variant:normal;font-weight:normal;font-size:54px;font-family:'3unknown';-inkscape-font-specification:'3unknown';writing-mode:lr-tb;fill:#ffffff;fill-opacity:1;fill-rule:nonzero;stroke:none"
           id="text114"><tspan
             x="0"
             y="0"
             id="tspan112">L</tspan></text>
        <text
           xml:space="preserve"
           transform="matrix(1,0,0,-1,243.958,430.637)"
           style="font-variant:normal;font-weight:600;font-size:57.561px;font-family:'3unknown';-inkscape-font-specification:'3unknown';writing-mode:lr-tb;fill:#ffffff;fill-opacity:1;fill-rule:nonzero;stroke:none"
           id="text118"><tspan
             x="0 30.736803 72.353027 103.66502 134.97754 167.09624 181.77393 233.52151 264.83304 295.34088 332.52444"
             y="0"
             sodipodi:role="line"
             id="tspan116">SHEET METAL</tspan></text>
      </g>
    </g>
  </g>
</svg>
