{"scene":0,"asset":{"generator":"ImageToStl.com","version":"2.0"},"scenes":[{"name":"Scene","nodes":[0]}],"nodes":[{"name":"Node0","children":[1]},{"name":"Node1","mesh":0}],"materials":[{"name":"#CAD1EEFF","pbrMetallicRoughness":{"baseColorFactor":[0.7921569,0.81960785,0.93333334,1.0],"metallicFactor":0.05,"roughnessFactor":0.5},"doubleSided":true}],"meshes":[{"name":"Mesh0","primitives":[{"indices":1,"material":0,"attributes":{"POSITION":0}}]}],"accessors":[{"bufferView":0,"componentType":5126,"count":83533,"type":"VEC3","min":[-21.0,0.0,-30.0],"max":[21.0,49.017696,30.0]},{"bufferView":1,"componentType":5125,"count":510864,"type":"SCALAR"}],"bufferViews":[{"target":34962,"buffer":0,"byteLength":1002396,"byteOffset":0},{"target":34963,"buffer":0,"byteLength":2043456,"byteOffset":1002396}],"buffers":[{"byteLength":3045852,"uri":"data:application/octet-stream;base64,"}]}